<svg width="159" height="21" viewBox="0 0 159 21" fill="none" xmlns="http://www.w3.org/2000/svg">
<path d="M11.8728 0.919999C12.7528 0.919999 13.6728 0.999999 14.6328 1.16C15.5928 1.3 16.3428 1.49 16.8828 1.73C17.0628 1.79 17.1728 1.87 17.2128 1.97C17.2728 2.05 17.3228 2.2 17.3628 2.42L17.7228 6.59C17.7228 6.65 17.6728 6.69 17.5728 6.71C17.4728 6.73 17.4128 6.7 17.3928 6.62C16.7128 5.04 15.8028 3.82 14.6628 2.96C13.5228 2.1 12.2028 1.67 10.7028 1.67C8.72278 1.67 7.19278 2.4 6.11278 3.86C5.03278 5.32 4.49278 7.28 4.49278 9.74C4.49278 11.58 4.78278 13.26 5.36278 14.78C5.96278 16.3 6.79278 17.51 7.85277 18.41C8.93278 19.29 10.1528 19.73 11.5128 19.73C12.7928 19.73 13.9328 19.31 14.9328 18.47C15.9528 17.61 16.8628 16.31 17.6628 14.57C17.6828 14.49 17.7428 14.46 17.8428 14.48C17.9628 14.5 18.0228 14.54 18.0228 14.6L17.5728 18.68C17.5328 18.92 17.4828 19.08 17.4228 19.16C17.3828 19.22 17.2728 19.29 17.0928 19.37C15.3128 20.03 13.4828 20.36 11.6028 20.36C9.16278 20.36 7.12278 19.88 5.48278 18.92C3.84278 17.94 2.63278 16.71 1.85278 15.23C1.09278 13.73 0.712775 12.17 0.712775 10.55C0.712775 8.65 1.22278 6.97 2.24278 5.51C3.28278 4.05 4.65278 2.92 6.35278 2.12C8.07278 1.32 9.91278 0.919999 11.8728 0.919999ZM35.0911 15.23C35.0911 15.19 35.1311 15.17 35.2111 15.17C35.2711 15.17 35.3211 15.19 35.3611 15.23C35.4211 15.25 35.4511 15.27 35.4511 15.29C35.2511 16.85 35.1511 18.27 35.1511 19.55C35.1511 19.71 35.1211 19.83 35.0611 19.91C35.0011 19.97 34.8811 20 34.7011 20H21.4411C21.3811 20 21.3511 19.94 21.3511 19.82C21.3511 19.7 21.3811 19.64 21.4411 19.64C22.0811 19.64 22.5411 19.59 22.8211 19.49C23.1211 19.39 23.3211 19.2 23.4211 18.92C23.5211 18.62 23.5711 18.17 23.5711 17.57V3.68C23.5711 3.08 23.5211 2.64 23.4211 2.36C23.3211 2.08 23.1211 1.89 22.8211 1.79C22.5211 1.67 22.0611 1.61 21.4411 1.61C21.3811 1.61 21.3511 1.55 21.3511 1.43C21.3511 1.31 21.3811 1.25 21.4411 1.25H34.1611C34.3611 1.25 34.4611 1.34 34.4611 1.52L34.5211 5.51C34.5211 5.55 34.4611 5.58 34.3411 5.6C34.2411 5.62 34.1811 5.6 34.1611 5.54C33.8411 4.38 33.3011 3.52 32.5411 2.96C31.7811 2.4 30.7811 2.12 29.5411 2.12H28.6411C28.0411 2.12 27.6011 2.25 27.3211 2.51C27.0411 2.77 26.9011 3.17 26.9011 3.71V9.83H29.3911C30.5511 9.83 31.4411 9.63 32.0611 9.23C32.6811 8.83 32.9911 8.27 32.9911 7.55C32.9911 7.49 33.0411 7.46 33.1411 7.46C33.2611 7.46 33.3211 7.49 33.3211 7.55L33.2911 10.25L33.3211 11.69C33.3611 12.37 33.3811 12.91 33.3811 13.31C33.3811 13.35 33.3211 13.37 33.2011 13.37C33.0811 13.37 33.0211 13.35 33.0211 13.31C33.0211 12.49 32.7011 11.85 32.0611 11.39C31.4411 10.91 30.5411 10.67 29.3611 10.67H26.9011V17.45C26.9011 18.03 27.0111 18.46 27.2311 18.74C27.4511 19.02 27.8011 19.16 28.2811 19.16H29.2711C30.8311 19.16 32.0811 18.84 33.0211 18.2C33.9611 17.56 34.6511 16.57 35.0911 15.23ZM44.0539 17.45C44.0539 17.97 44.0939 18.35 44.1739 18.59C44.2539 18.81 44.4039 18.96 44.6239 19.04C44.8639 19.12 45.2439 19.16 45.7639 19.16H46.7839C48.3439 19.16 49.6939 18.75 50.8339 17.93C51.9739 17.09 52.7339 15.96 53.1139 14.54C53.1139 14.5 53.1539 14.48 53.2339 14.48C53.2739 14.48 53.3139 14.5 53.3539 14.54C53.4139 14.56 53.4439 14.58 53.4439 14.6C53.2639 16.58 53.1739 18.23 53.1739 19.55C53.1739 19.71 53.1339 19.83 53.0539 19.91C52.9939 19.97 52.8839 20 52.7239 20H38.5639C38.5239 20 38.5039 19.94 38.5039 19.82C38.5039 19.7 38.5239 19.64 38.5639 19.64C39.2039 19.64 39.6639 19.59 39.9439 19.49C40.2439 19.39 40.4439 19.2 40.5439 18.92C40.6639 18.62 40.7239 18.17 40.7239 17.57V3.68C40.7239 3.08 40.6639 2.64 40.5439 2.36C40.4439 2.08 40.2439 1.89 39.9439 1.79C39.6439 1.67 39.1839 1.61 38.5639 1.61C38.5239 1.61 38.5039 1.55 38.5039 1.43C38.5039 1.31 38.5239 1.25 38.5639 1.25L40.0939 1.28C41.0139 1.32 41.7739 1.34 42.3739 1.34C42.9739 1.34 43.7339 1.32 44.6539 1.28L46.1839 1.25C46.2439 1.25 46.2739 1.31 46.2739 1.43C46.2739 1.55 46.2439 1.61 46.1839 1.61C45.5639 1.61 45.1039 1.67 44.8039 1.79C44.5039 1.89 44.3039 2.09 44.2039 2.39C44.1039 2.67 44.0539 3.11 44.0539 3.71V17.45ZM69.7915 15.23C69.7915 15.19 69.8315 15.17 69.9115 15.17C69.9715 15.17 70.0215 15.19 70.0615 15.23C70.1215 15.25 70.1515 15.27 70.1515 15.29C69.9515 16.85 69.8515 18.27 69.8515 19.55C69.8515 19.71 69.8215 19.83 69.7615 19.91C69.7015 19.97 69.5815 20 69.4015 20H56.1415C56.0815 20 56.0515 19.94 56.0515 19.82C56.0515 19.7 56.0815 19.64 56.1415 19.64C56.7815 19.64 57.2415 19.59 57.5215 19.49C57.8215 19.39 58.0215 19.2 58.1215 18.92C58.2215 18.62 58.2715 18.17 58.2715 17.57V3.68C58.2715 3.08 58.2215 2.64 58.1215 2.36C58.0215 2.08 57.8215 1.89 57.5215 1.79C57.2215 1.67 56.7615 1.61 56.1415 1.61C56.0815 1.61 56.0515 1.55 56.0515 1.43C56.0515 1.31 56.0815 1.25 56.1415 1.25H68.8615C69.0615 1.25 69.1615 1.34 69.1615 1.52L69.2215 5.51C69.2215 5.55 69.1615 5.58 69.0415 5.6C68.9415 5.62 68.8815 5.6 68.8615 5.54C68.5415 4.38 68.0015 3.52 67.2415 2.96C66.4815 2.4 65.4815 2.12 64.2415 2.12H63.3415C62.7415 2.12 62.3015 2.25 62.0215 2.51C61.7415 2.77 61.6015 3.17 61.6015 3.71V9.83H64.0915C65.2515 9.83 66.1415 9.63 66.7615 9.23C67.3815 8.83 67.6915 8.27 67.6915 7.55C67.6915 7.49 67.7415 7.46 67.8415 7.46C67.9615 7.46 68.0215 7.49 68.0215 7.55L67.9915 10.25L68.0215 11.69C68.0615 12.37 68.0815 12.91 68.0815 13.31C68.0815 13.35 68.0215 13.37 67.9015 13.37C67.7815 13.37 67.7215 13.35 67.7215 13.31C67.7215 12.49 67.4015 11.85 66.7615 11.39C66.1415 10.91 65.2415 10.67 64.0615 10.67H61.6015V17.45C61.6015 18.03 61.7115 18.46 61.9315 18.74C62.1515 19.02 62.5015 19.16 62.9815 19.16H63.9715C65.5315 19.16 66.7815 18.84 67.7215 18.2C68.6615 17.56 69.3515 16.57 69.7915 15.23ZM77.5843 4.28C77.5843 5 77.7643 5.64 78.1243 6.2C78.5043 6.76 78.9643 7.25 79.5043 7.67C80.0443 8.09 80.7743 8.6 81.6943 9.2C82.6943 9.84 83.4943 10.4 84.0943 10.88C84.6943 11.36 85.2043 11.95 85.6243 12.65C86.0443 13.33 86.2543 14.12 86.2543 15.02C86.2543 16.06 85.9743 16.99 85.4143 17.81C84.8543 18.61 84.0743 19.24 83.0743 19.7C82.0943 20.14 80.9943 20.36 79.7743 20.36C78.8743 20.36 77.9343 20.24 76.9543 20C75.9743 19.74 75.3143 19.46 74.9743 19.16C74.8743 19.08 74.7943 19.01 74.7343 18.95C74.6943 18.87 74.6743 18.75 74.6743 18.59L74.5843 13.82V13.79C74.5843 13.71 74.6343 13.67 74.7343 13.67C74.8343 13.65 74.8943 13.68 74.9143 13.76C75.5143 14.98 76.0343 15.97 76.4743 16.73C76.9343 17.49 77.5043 18.16 78.1843 18.74C78.8843 19.32 79.6743 19.61 80.5543 19.61C81.3543 19.61 82.0143 19.4 82.5343 18.98C83.0543 18.54 83.3143 17.8 83.3143 16.76C83.3143 15.88 83.1143 15.11 82.7143 14.45C82.3343 13.79 81.8643 13.23 81.3043 12.77C80.7443 12.31 79.9743 11.76 78.9943 11.12C78.0343 10.5 77.2843 9.97 76.7443 9.53C76.2243 9.09 75.7743 8.56 75.3943 7.94C75.0143 7.32 74.8243 6.59 74.8243 5.75C74.8243 4.69 75.1243 3.8 75.7243 3.08C76.3443 2.34 77.1343 1.8 78.0943 1.46C79.0543 1.1 80.0643 0.919999 81.1243 0.919999C81.8243 0.919999 82.5343 0.989999 83.2543 1.13C83.9743 1.25 84.5543 1.4 84.9943 1.58C85.1743 1.66 85.2943 1.75 85.3543 1.85C85.4143 1.93 85.4443 2.04 85.4443 2.18V6.59C85.4443 6.65 85.3943 6.7 85.2943 6.74C85.1943 6.76 85.1343 6.74 85.1143 6.68L84.8743 6.11C84.3743 4.85 83.7843 3.78 83.1043 2.9C82.4443 2.02 81.5143 1.58 80.3143 1.58C79.5143 1.58 78.8543 1.81 78.3343 2.27C77.8343 2.73 77.5843 3.4 77.5843 4.28ZM95.3637 1.94C92.9837 1.94 91.2737 3.49 90.2337 6.59C90.2137 6.65 90.1537 6.68 90.0537 6.68C89.9537 6.66 89.9037 6.62 89.9037 6.56C89.9837 5.76 90.0737 4.73 90.1737 3.47C90.2737 2.19 90.3237 1.23 90.3237 0.59C90.3237 0.49 90.3737 0.44 90.4737 0.44C90.5937 0.44 90.6537 0.49 90.6537 0.59C90.6537 1.03 91.2237 1.25 92.3637 1.25C94.0837 1.31 96.0937 1.34 98.3937 1.34C99.5737 1.34 100.824 1.32 102.144 1.28L104.184 1.25C104.944 1.25 105.494 1.2 105.834 1.1C106.194 0.999998 106.424 0.799999 106.524 0.499999C106.544 0.419999 106.604 0.379999 106.704 0.379999C106.824 0.379999 106.884 0.419999 106.884 0.499999C106.824 1.1 106.754 2.06 106.674 3.38C106.614 4.7 106.584 5.76 106.584 6.56C106.584 6.62 106.534 6.65 106.434 6.65C106.334 6.65 106.274 6.62 106.254 6.56C105.954 5.02 105.394 3.87 104.574 3.11C103.754 2.33 102.744 1.94 101.544 1.94C100.964 1.94 100.574 2.07 100.374 2.33C100.194 2.57 100.104 3.04 100.104 3.74V17.57C100.104 18.19 100.164 18.64 100.284 18.92C100.404 19.2 100.634 19.39 100.974 19.49C101.314 19.59 101.854 19.64 102.594 19.64C102.654 19.64 102.684 19.7 102.684 19.82C102.684 19.94 102.654 20 102.594 20C101.874 20 101.304 19.99 100.884 19.97L98.3937 19.94L95.9637 19.97C95.5437 19.99 94.9637 20 94.2237 20C94.1637 20 94.1337 19.94 94.1337 19.82C94.1337 19.7 94.1637 19.64 94.2237 19.64C94.9437 19.64 95.4737 19.59 95.8137 19.49C96.1737 19.39 96.4137 19.2 96.5337 18.92C96.6737 18.62 96.7437 18.17 96.7437 17.57V3.68C96.7437 3 96.6537 2.54 96.4737 2.3C96.2937 2.06 95.9237 1.94 95.3637 1.94ZM115.691 17.57C115.691 18.19 115.741 18.64 115.841 18.92C115.941 19.2 116.131 19.39 116.411 19.49C116.711 19.59 117.181 19.64 117.821 19.64C117.881 19.64 117.911 19.7 117.911 19.82C117.911 19.94 117.881 20 117.821 20C117.161 20 116.641 19.99 116.261 19.97L113.981 19.94L111.761 19.97C111.361 19.99 110.821 20 110.141 20C110.101 20 110.081 19.94 110.081 19.82C110.081 19.7 110.101 19.64 110.141 19.64C110.781 19.64 111.251 19.59 111.551 19.49C111.851 19.39 112.051 19.2 112.151 18.92C112.271 18.62 112.331 18.17 112.331 17.57V3.68C112.331 3.08 112.271 2.64 112.151 2.36C112.051 2.08 111.851 1.89 111.551 1.79C111.251 1.67 110.781 1.61 110.141 1.61C110.101 1.61 110.081 1.55 110.081 1.43C110.081 1.31 110.101 1.25 110.141 1.25L111.761 1.28C112.681 1.32 113.421 1.34 113.981 1.34C114.601 1.34 115.371 1.32 116.291 1.28L117.821 1.25C117.881 1.25 117.911 1.31 117.911 1.43C117.911 1.55 117.881 1.61 117.821 1.61C117.201 1.61 116.741 1.67 116.441 1.79C116.141 1.91 115.941 2.12 115.841 2.42C115.741 2.7 115.691 3.14 115.691 3.74V17.57ZM141.545 19.64C141.645 19.64 141.695 19.7 141.695 19.82C141.695 19.94 141.645 20 141.545 20C141.145 20 140.525 19.98 139.685 19.94C138.805 19.9 138.175 19.88 137.795 19.88C137.295 19.88 136.685 19.9 135.965 19.94C135.285 19.98 134.745 20 134.345 20C134.265 20 134.225 19.94 134.225 19.82C134.225 19.7 134.265 19.64 134.345 19.64C134.865 19.64 135.235 19.59 135.455 19.49C135.695 19.37 135.815 19.17 135.815 18.89C135.815 18.55 135.615 17.98 135.215 17.18L132.095 11.03H126.755L124.625 15.74C124.365 16.32 124.235 16.86 124.235 17.36C124.235 18.08 124.485 18.64 124.985 19.04C125.505 19.44 126.195 19.64 127.055 19.64C127.155 19.64 127.205 19.7 127.205 19.82C127.205 19.94 127.155 20 127.055 20C126.695 20 126.175 19.98 125.495 19.94C124.735 19.9 124.075 19.88 123.515 19.88C122.975 19.88 122.325 19.9 121.565 19.94C120.885 19.98 120.335 20 119.915 20C119.835 20 119.795 19.94 119.795 19.82C119.795 19.7 119.835 19.64 119.915 19.64C120.475 19.64 120.945 19.53 121.325 19.31C121.705 19.07 122.085 18.66 122.465 18.08C122.845 17.48 123.295 16.6 123.815 15.44L130.325 1.13C130.365 1.07 130.455 1.04 130.595 1.04C130.755 1.04 130.845 1.07 130.865 1.13L138.365 15.89C139.065 17.31 139.645 18.29 140.105 18.83C140.565 19.37 141.045 19.64 141.545 19.64ZM127.145 10.19H131.675L129.275 5.45L127.145 10.19ZM148.8 17.45C148.8 17.97 148.84 18.35 148.92 18.59C149 18.81 149.15 18.96 149.37 19.04C149.61 19.12 149.99 19.16 150.51 19.16H151.53C153.09 19.16 154.44 18.75 155.58 17.93C156.72 17.09 157.48 15.96 157.86 14.54C157.86 14.5 157.9 14.48 157.98 14.48C158.02 14.48 158.06 14.5 158.1 14.54C158.16 14.56 158.19 14.58 158.19 14.6C158.01 16.58 157.92 18.23 157.92 19.55C157.92 19.71 157.88 19.83 157.8 19.91C157.74 19.97 157.63 20 157.47 20H143.31C143.27 20 143.25 19.94 143.25 19.82C143.25 19.7 143.27 19.64 143.31 19.64C143.95 19.64 144.41 19.59 144.69 19.49C144.99 19.39 145.19 19.2 145.29 18.92C145.41 18.62 145.47 18.17 145.47 17.57V3.68C145.47 3.08 145.41 2.64 145.29 2.36C145.19 2.08 144.99 1.89 144.69 1.79C144.39 1.67 143.93 1.61 143.31 1.61C143.27 1.61 143.25 1.55 143.25 1.43C143.25 1.31 143.27 1.25 143.31 1.25L144.84 1.28C145.76 1.32 146.52 1.34 147.12 1.34C147.72 1.34 148.48 1.32 149.4 1.28L150.93 1.25C150.99 1.25 151.02 1.31 151.02 1.43C151.02 1.55 150.99 1.61 150.93 1.61C150.31 1.61 149.85 1.67 149.55 1.79C149.25 1.89 149.05 2.09 148.95 2.39C148.85 2.67 148.8 3.11 148.8 3.71V17.45Z" fill="black"/>
</svg>
