<svg width="165" height="21" viewBox="0 0 165 21" fill="none" xmlns="http://www.w3.org/2000/svg">
<path d="M11.8173 0.919999C12.6973 0.919999 13.6173 0.999999 14.5773 1.16C15.5373 1.3 16.2873 1.49 16.8273 1.73C17.0073 1.79 17.1173 1.87 17.1573 1.97C17.2173 2.05 17.2673 2.2 17.3073 2.42L17.6673 6.59C17.6673 6.65 17.6173 6.69 17.5173 6.71C17.4173 6.73 17.3573 6.7 17.3373 6.62C16.6573 5.04 15.7473 3.82 14.6073 2.96C13.4673 2.1 12.1473 1.67 10.6473 1.67C8.6673 1.67 7.1373 2.4 6.0573 3.86C4.9773 5.32 4.4373 7.28 4.4373 9.74C4.4373 11.58 4.7273 13.26 5.3073 14.78C5.9073 16.3 6.7373 17.51 7.7973 18.41C8.8773 19.29 10.0973 19.73 11.4573 19.73C12.7373 19.73 13.8773 19.31 14.8773 18.47C15.8973 17.61 16.8073 16.31 17.6073 14.57C17.6273 14.49 17.6873 14.46 17.7873 14.48C17.9073 14.5 17.9673 14.54 17.9673 14.6L17.5173 18.68C17.4773 18.92 17.4273 19.08 17.3673 19.16C17.3273 19.22 17.2173 19.29 17.0373 19.37C15.2573 20.03 13.4273 20.36 11.5473 20.36C9.1073 20.36 7.0673 19.88 5.4273 18.92C3.7873 17.94 2.5773 16.71 1.7973 15.23C1.0373 13.73 0.657302 12.17 0.657302 10.55C0.657302 8.65 1.1673 6.97 2.1873 5.51C3.2273 4.05 4.5973 2.92 6.2973 2.12C8.0173 1.32 9.8573 0.919999 11.8173 0.919999ZM35.0357 15.23C35.0357 15.19 35.0757 15.17 35.1557 15.17C35.2157 15.17 35.2657 15.19 35.3057 15.23C35.3657 15.25 35.3957 15.27 35.3957 15.29C35.1957 16.85 35.0957 18.27 35.0957 19.55C35.0957 19.71 35.0657 19.83 35.0057 19.91C34.9457 19.97 34.8257 20 34.6457 20H21.3857C21.3257 20 21.2957 19.94 21.2957 19.82C21.2957 19.7 21.3257 19.64 21.3857 19.64C22.0257 19.64 22.4857 19.59 22.7657 19.49C23.0657 19.39 23.2657 19.2 23.3657 18.92C23.4657 18.62 23.5157 18.17 23.5157 17.57V3.68C23.5157 3.08 23.4657 2.64 23.3657 2.36C23.2657 2.08 23.0657 1.89 22.7657 1.79C22.4657 1.67 22.0057 1.61 21.3857 1.61C21.3257 1.61 21.2957 1.55 21.2957 1.43C21.2957 1.31 21.3257 1.25 21.3857 1.25H34.1057C34.3057 1.25 34.4057 1.34 34.4057 1.52L34.4657 5.51C34.4657 5.55 34.4057 5.58 34.2857 5.6C34.1857 5.62 34.1257 5.6 34.1057 5.54C33.7857 4.38 33.2457 3.52 32.4857 2.96C31.7257 2.4 30.7257 2.12 29.4857 2.12H28.5857C27.9857 2.12 27.5457 2.25 27.2657 2.51C26.9857 2.77 26.8457 3.17 26.8457 3.71V9.83H29.3357C30.4957 9.83 31.3857 9.63 32.0057 9.23C32.6257 8.83 32.9357 8.27 32.9357 7.55C32.9357 7.49 32.9857 7.46 33.0857 7.46C33.2057 7.46 33.2657 7.49 33.2657 7.55L33.2357 10.25L33.2657 11.69C33.3057 12.37 33.3257 12.91 33.3257 13.31C33.3257 13.35 33.2657 13.37 33.1457 13.37C33.0257 13.37 32.9657 13.35 32.9657 13.31C32.9657 12.49 32.6457 11.85 32.0057 11.39C31.3857 10.91 30.4857 10.67 29.3057 10.67H26.8457V17.45C26.8457 18.03 26.9557 18.46 27.1757 18.74C27.3957 19.02 27.7457 19.16 28.2257 19.16H29.2157C30.7757 19.16 32.0257 18.84 32.9657 18.2C33.9057 17.56 34.5957 16.57 35.0357 15.23ZM43.9984 17.45C43.9984 17.97 44.0384 18.35 44.1184 18.59C44.1984 18.81 44.3484 18.96 44.5684 19.04C44.8084 19.12 45.1884 19.16 45.7084 19.16H46.7284C48.2884 19.16 49.6384 18.75 50.7784 17.93C51.9184 17.09 52.6784 15.96 53.0584 14.54C53.0584 14.5 53.0984 14.48 53.1784 14.48C53.2184 14.48 53.2584 14.5 53.2984 14.54C53.3584 14.56 53.3884 14.58 53.3884 14.6C53.2084 16.58 53.1184 18.23 53.1184 19.55C53.1184 19.71 53.0784 19.83 52.9984 19.91C52.9384 19.97 52.8284 20 52.6684 20H38.5084C38.4684 20 38.4484 19.94 38.4484 19.82C38.4484 19.7 38.4684 19.64 38.5084 19.64C39.1484 19.64 39.6084 19.59 39.8884 19.49C40.1884 19.39 40.3884 19.2 40.4884 18.92C40.6084 18.62 40.6684 18.17 40.6684 17.57V3.68C40.6684 3.08 40.6084 2.64 40.4884 2.36C40.3884 2.08 40.1884 1.89 39.8884 1.79C39.5884 1.67 39.1284 1.61 38.5084 1.61C38.4684 1.61 38.4484 1.55 38.4484 1.43C38.4484 1.31 38.4684 1.25 38.5084 1.25L40.0384 1.28C40.9584 1.32 41.7184 1.34 42.3184 1.34C42.9184 1.34 43.6784 1.32 44.5984 1.28L46.1284 1.25C46.1884 1.25 46.2184 1.31 46.2184 1.43C46.2184 1.55 46.1884 1.61 46.1284 1.61C45.5084 1.61 45.0484 1.67 44.7484 1.79C44.4484 1.89 44.2484 2.09 44.1484 2.39C44.0484 2.67 43.9984 3.11 43.9984 3.71V17.45ZM69.7361 15.23C69.7361 15.19 69.7761 15.17 69.8561 15.17C69.9161 15.17 69.9661 15.19 70.0061 15.23C70.0661 15.25 70.0961 15.27 70.0961 15.29C69.8961 16.85 69.7961 18.27 69.7961 19.55C69.7961 19.71 69.7661 19.83 69.7061 19.91C69.6461 19.97 69.5261 20 69.3461 20H56.0861C56.0261 20 55.9961 19.94 55.9961 19.82C55.9961 19.7 56.0261 19.64 56.0861 19.64C56.7261 19.64 57.1861 19.59 57.4661 19.49C57.7661 19.39 57.9661 19.2 58.0661 18.92C58.1661 18.62 58.2161 18.17 58.2161 17.57V3.68C58.2161 3.08 58.1661 2.64 58.0661 2.36C57.9661 2.08 57.7661 1.89 57.4661 1.79C57.1661 1.67 56.7061 1.61 56.0861 1.61C56.0261 1.61 55.9961 1.55 55.9961 1.43C55.9961 1.31 56.0261 1.25 56.0861 1.25H68.8061C69.0061 1.25 69.1061 1.34 69.1061 1.52L69.1661 5.51C69.1661 5.55 69.1061 5.58 68.9861 5.6C68.8861 5.62 68.8261 5.6 68.8061 5.54C68.4861 4.38 67.9461 3.52 67.1861 2.96C66.4261 2.4 65.4261 2.12 64.1861 2.12H63.2861C62.6861 2.12 62.2461 2.25 61.9661 2.51C61.6861 2.77 61.5461 3.17 61.5461 3.71V9.83H64.0361C65.1961 9.83 66.0861 9.63 66.7061 9.23C67.3261 8.83 67.6361 8.27 67.6361 7.55C67.6361 7.49 67.6861 7.46 67.7861 7.46C67.9061 7.46 67.9661 7.49 67.9661 7.55L67.9361 10.25L67.9661 11.69C68.0061 12.37 68.0261 12.91 68.0261 13.31C68.0261 13.35 67.9661 13.37 67.8461 13.37C67.7261 13.37 67.6661 13.35 67.6661 13.31C67.6661 12.49 67.3461 11.85 66.7061 11.39C66.0861 10.91 65.1861 10.67 64.0061 10.67H61.5461V17.45C61.5461 18.03 61.6561 18.46 61.8761 18.74C62.0961 19.02 62.4461 19.16 62.9261 19.16H63.9161C65.4761 19.16 66.7261 18.84 67.6661 18.2C68.6061 17.56 69.2961 16.57 69.7361 15.23ZM77.5288 4.28C77.5288 5 77.7088 5.64 78.0688 6.2C78.4488 6.76 78.9088 7.25 79.4488 7.67C79.9888 8.09 80.7188 8.6 81.6388 9.2C82.6388 9.84 83.4388 10.4 84.0388 10.88C84.6388 11.36 85.1488 11.95 85.5688 12.65C85.9888 13.33 86.1988 14.12 86.1988 15.02C86.1988 16.06 85.9188 16.99 85.3588 17.81C84.7988 18.61 84.0188 19.24 83.0188 19.7C82.0388 20.14 80.9388 20.36 79.7188 20.36C78.8188 20.36 77.8788 20.24 76.8988 20C75.9188 19.74 75.2588 19.46 74.9188 19.16C74.8188 19.08 74.7388 19.01 74.6788 18.95C74.6388 18.87 74.6188 18.75 74.6188 18.59L74.5288 13.82V13.79C74.5288 13.71 74.5788 13.67 74.6788 13.67C74.7788 13.65 74.8388 13.68 74.8588 13.76C75.4588 14.98 75.9788 15.97 76.4188 16.73C76.8788 17.49 77.4488 18.16 78.1288 18.74C78.8288 19.32 79.6188 19.61 80.4988 19.61C81.2988 19.61 81.9588 19.4 82.4788 18.98C82.9988 18.54 83.2588 17.8 83.2588 16.76C83.2588 15.88 83.0588 15.11 82.6588 14.45C82.2788 13.79 81.8088 13.23 81.2488 12.77C80.6888 12.31 79.9188 11.76 78.9388 11.12C77.9788 10.5 77.2288 9.97 76.6888 9.53C76.1688 9.09 75.7188 8.56 75.3388 7.94C74.9588 7.32 74.7688 6.59 74.7688 5.75C74.7688 4.69 75.0688 3.8 75.6688 3.08C76.2888 2.34 77.0788 1.8 78.0388 1.46C78.9988 1.1 80.0088 0.919999 81.0688 0.919999C81.7688 0.919999 82.4788 0.989999 83.1988 1.13C83.9188 1.25 84.4988 1.4 84.9388 1.58C85.1188 1.66 85.2388 1.75 85.2988 1.85C85.3588 1.93 85.3888 2.04 85.3888 2.18V6.59C85.3888 6.65 85.3388 6.7 85.2388 6.74C85.1388 6.76 85.0788 6.74 85.0588 6.68L84.8188 6.11C84.3188 4.85 83.7288 3.78 83.0488 2.9C82.3888 2.02 81.4588 1.58 80.2588 1.58C79.4588 1.58 78.7988 1.81 78.2788 2.27C77.7788 2.73 77.5288 3.4 77.5288 4.28ZM95.3082 1.94C92.9282 1.94 91.2182 3.49 90.1782 6.59C90.1582 6.65 90.0982 6.68 89.9982 6.68C89.8982 6.66 89.8482 6.62 89.8482 6.56C89.9282 5.76 90.0182 4.73 90.1182 3.47C90.2182 2.19 90.2682 1.23 90.2682 0.59C90.2682 0.49 90.3182 0.44 90.4182 0.44C90.5382 0.44 90.5982 0.49 90.5982 0.59C90.5982 1.03 91.1682 1.25 92.3082 1.25C94.0282 1.31 96.0382 1.34 98.3382 1.34C99.5182 1.34 100.768 1.32 102.088 1.28L104.128 1.25C104.888 1.25 105.438 1.2 105.778 1.1C106.138 0.999998 106.368 0.799999 106.468 0.499999C106.488 0.419999 106.548 0.379999 106.648 0.379999C106.768 0.379999 106.828 0.419999 106.828 0.499999C106.768 1.1 106.698 2.06 106.618 3.38C106.558 4.7 106.528 5.76 106.528 6.56C106.528 6.62 106.478 6.65 106.378 6.65C106.278 6.65 106.218 6.62 106.198 6.56C105.898 5.02 105.338 3.87 104.518 3.11C103.698 2.33 102.688 1.94 101.488 1.94C100.908 1.94 100.518 2.07 100.318 2.33C100.138 2.57 100.048 3.04 100.048 3.74V17.57C100.048 18.19 100.108 18.64 100.228 18.92C100.348 19.2 100.578 19.39 100.918 19.49C101.258 19.59 101.798 19.64 102.538 19.64C102.598 19.64 102.628 19.7 102.628 19.82C102.628 19.94 102.598 20 102.538 20C101.818 20 101.248 19.99 100.828 19.97L98.3382 19.94L95.9082 19.97C95.4882 19.99 94.9082 20 94.1682 20C94.1082 20 94.0782 19.94 94.0782 19.82C94.0782 19.7 94.1082 19.64 94.1682 19.64C94.8882 19.64 95.4182 19.59 95.7582 19.49C96.1182 19.39 96.3582 19.2 96.4782 18.92C96.6182 18.62 96.6882 18.17 96.6882 17.57V3.68C96.6882 3 96.5982 2.54 96.4182 2.3C96.2382 2.06 95.8682 1.94 95.3082 1.94ZM115.636 17.57C115.636 18.19 115.686 18.64 115.786 18.92C115.886 19.2 116.076 19.39 116.356 19.49C116.656 19.59 117.126 19.64 117.766 19.64C117.826 19.64 117.856 19.7 117.856 19.82C117.856 19.94 117.826 20 117.766 20C117.106 20 116.586 19.99 116.206 19.97L113.926 19.94L111.706 19.97C111.306 19.99 110.766 20 110.086 20C110.046 20 110.026 19.94 110.026 19.82C110.026 19.7 110.046 19.64 110.086 19.64C110.726 19.64 111.196 19.59 111.496 19.49C111.796 19.39 111.996 19.2 112.096 18.92C112.216 18.62 112.276 18.17 112.276 17.57V3.68C112.276 3.08 112.216 2.64 112.096 2.36C111.996 2.08 111.796 1.89 111.496 1.79C111.196 1.67 110.726 1.61 110.086 1.61C110.046 1.61 110.026 1.55 110.026 1.43C110.026 1.31 110.046 1.25 110.086 1.25L111.706 1.28C112.626 1.32 113.366 1.34 113.926 1.34C114.546 1.34 115.316 1.32 116.236 1.28L117.766 1.25C117.826 1.25 117.856 1.31 117.856 1.43C117.856 1.55 117.826 1.61 117.766 1.61C117.146 1.61 116.686 1.67 116.386 1.79C116.086 1.91 115.886 2.12 115.786 2.42C115.686 2.7 115.636 3.14 115.636 3.74V17.57ZM141.489 19.64C141.589 19.64 141.639 19.7 141.639 19.82C141.639 19.94 141.589 20 141.489 20C141.089 20 140.469 19.98 139.629 19.94C138.749 19.9 138.119 19.88 137.739 19.88C137.239 19.88 136.629 19.9 135.909 19.94C135.229 19.98 134.689 20 134.289 20C134.209 20 134.169 19.94 134.169 19.82C134.169 19.7 134.209 19.64 134.289 19.64C134.809 19.64 135.179 19.59 135.399 19.49C135.639 19.37 135.759 19.17 135.759 18.89C135.759 18.55 135.559 17.98 135.159 17.18L132.039 11.03H126.699L124.569 15.74C124.309 16.32 124.179 16.86 124.179 17.36C124.179 18.08 124.429 18.64 124.929 19.04C125.449 19.44 126.139 19.64 126.999 19.64C127.099 19.64 127.149 19.7 127.149 19.82C127.149 19.94 127.099 20 126.999 20C126.639 20 126.119 19.98 125.439 19.94C124.679 19.9 124.019 19.88 123.459 19.88C122.919 19.88 122.269 19.9 121.509 19.94C120.829 19.98 120.279 20 119.859 20C119.779 20 119.739 19.94 119.739 19.82C119.739 19.7 119.779 19.64 119.859 19.64C120.419 19.64 120.889 19.53 121.269 19.31C121.649 19.07 122.029 18.66 122.409 18.08C122.789 17.48 123.239 16.6 123.759 15.44L130.269 1.13C130.309 1.07 130.399 1.04 130.539 1.04C130.699 1.04 130.789 1.07 130.809 1.13L138.309 15.89C139.009 17.31 139.589 18.29 140.049 18.83C140.509 19.37 140.989 19.64 141.489 19.64ZM127.089 10.19H131.619L129.219 5.45L127.089 10.19ZM148.744 17.45C148.744 17.97 148.784 18.35 148.864 18.59C148.944 18.81 149.094 18.96 149.314 19.04C149.554 19.12 149.934 19.16 150.454 19.16H151.474C153.034 19.16 154.384 18.75 155.524 17.93C156.664 17.09 157.424 15.96 157.804 14.54C157.804 14.5 157.844 14.48 157.924 14.48C157.964 14.48 158.004 14.5 158.044 14.54C158.104 14.56 158.134 14.58 158.134 14.6C157.954 16.58 157.864 18.23 157.864 19.55C157.864 19.71 157.824 19.83 157.744 19.91C157.684 19.97 157.574 20 157.414 20H143.254C143.214 20 143.194 19.94 143.194 19.82C143.194 19.7 143.214 19.64 143.254 19.64C143.894 19.64 144.354 19.59 144.634 19.49C144.934 19.39 145.134 19.2 145.234 18.92C145.354 18.62 145.414 18.17 145.414 17.57V3.68C145.414 3.08 145.354 2.64 145.234 2.36C145.134 2.08 144.934 1.89 144.634 1.79C144.334 1.67 143.874 1.61 143.254 1.61C143.214 1.61 143.194 1.55 143.194 1.43C143.194 1.31 143.214 1.25 143.254 1.25L144.784 1.28C145.704 1.32 146.464 1.34 147.064 1.34C147.664 1.34 148.424 1.32 149.344 1.28L150.874 1.25C150.934 1.25 150.964 1.31 150.964 1.43C150.964 1.55 150.934 1.61 150.874 1.61C150.254 1.61 149.794 1.67 149.494 1.79C149.194 1.89 148.994 2.09 148.894 2.39C148.794 2.67 148.744 3.11 148.744 3.71V17.45ZM162.752 20.33C162.192 20.33 161.742 20.17 161.402 19.85C161.082 19.51 160.922 19.06 160.922 18.5C160.922 17.98 161.082 17.56 161.402 17.24C161.742 16.92 162.192 16.76 162.752 16.76C163.312 16.76 163.742 16.92 164.042 17.24C164.362 17.54 164.522 17.96 164.522 18.5C164.522 19.08 164.362 19.53 164.042 19.85C163.742 20.17 163.312 20.33 162.752 20.33Z" fill="white"/>
</svg>
