<svg width="48" height="48" viewBox="0 0 48 48" fill="none" xmlns="http://www.w3.org/2000/svg">
<path d="M24 4C12.9531 4 4 12.9531 4 24C4 35.0469 12.9531 44 24 44C35.0469 44 44 35.0469 44 24C44 12.9531 35.0469 4 24 4ZM24 8C32.8359 8 40 15.1641 40 24C40 32.8359 32.8359 40 24 40C22.5273 40 21.1094 39.7852 19.7578 39.4141C20.1836 38.5547 20.5664 37.6523 20.7734 36.8516C21.0039 35.9727 21.9453 32.3828 21.9453 32.3828C22.5586 33.5508 24.3477 34.543 26.25 34.543C31.9141 34.543 36 29.332 36 22.8555C36 16.6445 30.9336 12 24.4141 12C16.3047 12 12 17.4414 12 23.3711C12 26.1289 13.4648 29.5586 15.8125 30.6523C16.168 30.8164 16.3594 30.7461 16.4414 30.4023C16.5039 30.1406 16.8242 28.8633 16.9648 28.2695C17.0117 28.082 16.9883 27.918 16.8359 27.7305C16.0586 26.7891 15.4375 25.0586 15.4375 23.4453C15.4375 19.3008 18.5742 15.2891 23.9219 15.2891C28.5391 15.2891 31.7695 18.4375 31.7695 22.9336C31.7695 28.0156 29.2031 31.5352 25.8633 31.5352C24.0195 31.5352 22.6328 30.0117 23.0781 28.1406C23.6094 25.9062 24.6367 23.4961 24.6367 21.8828C24.6367 20.4414 23.8672 19.2383 22.2617 19.2383C20.375 19.2383 18.8594 21.1875 18.8594 23.8008C18.8594 25.4648 19.4219 26.5898 19.4219 26.5898C19.4219 26.5898 17.5625 34.4648 17.2188 35.9297C17.0508 36.6523 16.9922 37.5117 16.9883 38.3672C11.6719 35.7656 8 30.3164 8 24C8 15.1641 15.1641 8 24 8Z" fill="#767676"/>
</svg>
