<?xml version="1.0"?>
<svg xmlns="http://www.w3.org/2000/svg" xmlns:xlink="http://www.w3.org/1999/xlink" xmlns:svgjs="http://svgjs.com/svgjs" version="1.1" width="512" height="512" x="0" y="0" viewBox="0 0 512 512" style="enable-background:new 0 0 512 512" xml:space="preserve" class=""><g>
<g xmlns="http://www.w3.org/2000/svg">
	<g>
		<g>
			<path d="M256,0C114.833,0,0,114.844,0,256s114.833,256,256,256s256-114.844,256-256S397.167,0,256,0z M256,490.667     C126.604,490.667,21.333,385.396,21.333,256S126.604,21.333,256,21.333S490.667,126.604,490.667,256S385.396,490.667,256,490.667     z" fill="#ffffff" data-original="#000000" style="" class=""/>
			<path d="M357.771,247.031l-149.333-96c-3.271-2.135-7.5-2.25-10.875-0.396C194.125,152.51,192,156.094,192,160v192     c0,3.906,2.125,7.49,5.563,9.365c1.583,0.865,3.354,1.302,5.104,1.302c2,0,4.021-0.563,5.771-1.698l149.333-96     c3.042-1.958,4.896-5.344,4.896-8.969S360.813,248.99,357.771,247.031z M213.333,332.458V179.542L332.271,256L213.333,332.458z" fill="#ffffff" data-original="#000000" style="" class=""/>
		</g>
	</g>
</g>
<g xmlns="http://www.w3.org/2000/svg">
</g>
<g xmlns="http://www.w3.org/2000/svg">
</g>
<g xmlns="http://www.w3.org/2000/svg">
</g>
<g xmlns="http://www.w3.org/2000/svg">
</g>
<g xmlns="http://www.w3.org/2000/svg">
</g>
<g xmlns="http://www.w3.org/2000/svg">
</g>
<g xmlns="http://www.w3.org/2000/svg">
</g>
<g xmlns="http://www.w3.org/2000/svg">
</g>
<g xmlns="http://www.w3.org/2000/svg">
</g>
<g xmlns="http://www.w3.org/2000/svg">
</g>
<g xmlns="http://www.w3.org/2000/svg">
</g>
<g xmlns="http://www.w3.org/2000/svg">
</g>
<g xmlns="http://www.w3.org/2000/svg">
</g>
<g xmlns="http://www.w3.org/2000/svg">
</g>
<g xmlns="http://www.w3.org/2000/svg">
</g>
</g></svg>
