<svg width="25" height="25" viewBox="0 0 25 25" fill="none" xmlns="http://www.w3.org/2000/svg">
<path d="M20.1087 19.0217C18.6109 19.0217 17.3914 20.2413 17.3914 21.7391C17.3914 23.2369 18.6109 24.4566 20.1087 24.4566C21.6066 24.4566 22.8261 23.237 22.8261 21.7391C22.8261 20.2413 21.6065 19.0217 20.1087 19.0217ZM20.1087 23.3696C19.2098 23.3696 18.4783 22.6381 18.4783 21.7391C18.4783 20.8402 19.2098 20.1087 20.1087 20.1087C21.0077 20.1087 21.7392 20.8402 21.7392 21.7391C21.7392 22.6381 21.0076 23.3696 20.1087 23.3696Z" fill="black"/>
<path d="M9.23911 19.0217C7.7413 19.0217 6.52173 20.2413 6.52173 21.7391C6.52173 23.2369 7.7413 24.4566 9.23911 24.4566C10.7369 24.4566 11.9565 23.237 11.9565 21.7392C11.9565 20.2414 10.737 19.0217 9.23911 19.0217ZM9.23911 23.3696C8.34017 23.3696 7.60867 22.6381 7.60867 21.7391C7.60867 20.8402 8.34017 20.1087 9.23911 20.1087C10.138 20.1087 10.8695 20.8402 10.8695 21.7391C10.8695 22.6381 10.138 23.3696 9.23911 23.3696Z" fill="black"/>
<path d="M22.2826 16.8478H9.73804C8.44781 16.8478 7.32719 15.9293 7.07391 14.663L4.33696 0.980399C4.28586 0.726051 4.06305 0.543442 3.80437 0.543442H0.543496C0.243496 0.543442 0 0.786938 0 1.08694C0 1.38694 0.243496 1.63043 0.543496 1.63043H3.3587L6.0076 14.8772C6.36197 16.6489 7.93152 17.9348 9.73804 17.9348H22.2826C22.5826 17.9348 22.8261 17.6913 22.8261 17.3913C22.8261 17.0913 22.5826 16.8478 22.2826 16.8478Z" fill="black"/>
<path d="M24.8641 3.98805C24.7609 3.87172 24.6131 3.80437 24.4565 3.80437H4.89127C4.59127 3.80437 4.34778 4.04786 4.34778 4.34786C4.34778 4.64786 4.59127 4.89131 4.89127 4.89131H23.8413L23.0685 11.0717C22.9663 11.8859 22.2706 12.5 21.45 12.5H6.52171C6.22171 12.5 5.97822 12.7435 5.97822 13.0435C5.97822 13.3435 6.22171 13.587 6.52171 13.587H21.45C22.8174 13.587 23.9772 12.5641 24.1467 11.2066L24.9956 4.41522C25.0152 4.26084 24.9674 4.10432 24.8641 3.98805Z" fill="black"/>
</svg>
